<?xml version="1.0" encoding="utf-8"?>
<!-- Svg Vector Icons : http://www.onlinewebfonts.com/icon -->
<!DOCTYPE svg PUBLIC "-//W3C//DTD SVG 1.1//EN" "http://www.w3.org/Graphics/SVG/1.1/DTD/svg11.dtd">
<svg version="1.1" xmlns="http://www.w3.org/2000/svg" xmlns:xlink="http://www.w3.org/1999/xlink" x="0px" y="0px" viewBox="0 0 1000 1000" enable-background="new 0 0 1000 1000" xml:space="preserve">
<metadata> Svg Vector Icons : http://www.onlinewebfonts.com/icon </metadata>
<g><g><path d="M500,10C229.4,10,10,229.4,10,500c0,270.6,219.4,490,490,490s490-219.4,490-490C990,229.4,770.6,10,500,10z M696.7,717.5c-87.9-44.8-62-192.6-21.4-329.9C567.8,480.3,493.4,664.4,468,706.9c-24,40.3-70.3,5.9-70.6-12.7c-1.3-92.5,11.6-246.3,37.8-379.7C330.4,425.9,251.9,653.8,221.8,713.8c-19.3,38.4-68.8,4.6-68.4-14.4c3.4-133-19-198.6-20.4-213c-2.2-22.3,79.3-42.4,78.1,49.1C278.6,344.6,390,199,472,233c93.6,38.8,39.6,157.3,21.9,260.3c55.3-94.9,123.5-219.6,221.8-178.2c96,40.6-39.9,272.9,28.4,326.4c16.5,13,43,11.1,60.5-13.4c13.6-19.1,13.3-38.7,22.1-42.8c26.7-12.3,43.7,21.6,39.8,49.3C858.6,690.9,785.7,762.8,696.7,717.5z"/></g><g></g><g></g><g></g><g></g><g></g><g></g><g></g><g></g><g></g><g></g><g></g><g></g><g></g><g></g><g></g></g>
</svg>